<svg xmlns="http://www.w3.org/2000/svg" width="24" height="19" viewBox="0 0 24 19">
  <path id="dashboard" d="M12,2A12,12,0,0,0,0,14a12.149,12.149,0,0,0,2.2,7H21.8A12.149,12.149,0,0,0,24,14,12,12,0,0,0,12,2Zm-.758,2.14c.256-.02.51-.029.758-.029s.5.01.758.029V7.255A7.131,7.131,0,0,0,12,7.213a6.877,6.877,0,0,0-.758.042ZM5.479,12.118,2.6,10.925a9.8,9.8,0,0,1,.581-1.4l2.879,1.192a6.607,6.607,0,0,0-.58,1.4ZM6.695,9.767l-2.2-2.2A9.936,9.936,0,0,1,5.563,6.493l2.2,2.2A6.866,6.866,0,0,0,6.695,9.767ZM7.488,5.2a9.792,9.792,0,0,1,1.4-.586l1.2,2.875a6.721,6.721,0,0,0-1.4.585ZM8.9,19a3.1,3.1,0,0,1,1.6-2.672L12,9.287l1.5,7.041A3.109,3.109,0,0,1,15.1,19ZM13.884,7.479,15.077,4.6a9.8,9.8,0,0,1,1.4.581L15.283,8.059A6.705,6.705,0,0,0,13.884,7.479ZM16.233,8.7l2.2-2.2a10.028,10.028,0,0,1,1.071,1.071l-2.2,2.2A6.78,6.78,0,0,0,16.233,8.7Zm2.259,3.32a6.713,6.713,0,0,0-.6-1.39l2.86-1.238a9.787,9.787,0,0,1,.6,1.39Z" transform="translate(0 -2)" fill="#bcbcbc"/>
</svg>
