<svg xmlns="http://www.w3.org/2000/svg" width="24" height="18.45" viewBox="0 0 24 18.45">
  <path id="iconmonstr-eye-8" d="M19.6,2.562,16.258,5.7A13.214,13.214,0,0,0,12.015,5C4.446,5,0,11.551,0,11.551a20.69,20.69,0,0,0,5.146,5.138L2.235,19.6l1.414,1.414L21.019,3.977,19.6,2.562ZM13.588,8.341a3.987,3.987,0,0,0-5.265,5.206L6.6,15.254a18.174,18.174,0,0,1-4.06-3.66C4.03,9.946,7.354,7,12.015,7a11.1,11.1,0,0,1,2.61.315L13.588,8.341ZM10.7,15.772l5.09-4.993A3.99,3.99,0,0,1,10.7,15.772ZM24,11.551S19.748,19,12.015,19a10.9,10.9,0,0,1-3.851-.737L9.778,16.68a8.542,8.542,0,0,0,2.237.32c4.791,0,8.1-3.527,9.5-5.364a15.309,15.309,0,0,0-3.587-2.952l1.489-1.46A16.618,16.618,0,0,1,24,11.551Z" transform="translate(0 -2.562)" fill="#707070"/>
</svg>
