<svg xmlns="http://www.w3.org/2000/svg" width="23.527" height="25.226" viewBox="0 0 23.527 25.226">
  <path id="notification" d="M17.293,22.072A3.428,3.428,0,0,1,13.8,25.226a3.5,3.5,0,0,1-3.563-3.153Zm.161-17.926a2.177,2.177,0,0,1-1.225-1.913v0A2.356,2.356,0,0,0,13.764,0,2.358,2.358,0,0,0,11.3,2.23v0a2.173,2.173,0,0,1-1.225,1.913C4.581,6.994,7.737,16.46,2,18.132V19.97H25.527V18.132C19.79,16.46,22.948,6.993,17.454,4.146Zm-3.69-3.1A1.12,1.12,0,0,1,14.94,2.1a1.184,1.184,0,0,1-2.353,0A1.12,1.12,0,0,1,13.764,1.051ZM6.175,17.868c1.4-1.752,1.888-4.09,2.31-6.112.526-2.512,1.022-4.885,2.769-5.79a5.426,5.426,0,0,1,5.02,0c1.747.9,2.243,3.278,2.769,5.79.422,2.022.912,4.36,2.31,6.112Z" transform="translate(-2)" fill="#fff"/>
</svg>
