<svg xmlns="http://www.w3.org/2000/svg" width="24" height="15" viewBox="0 0 24 15">
  <path id="Icon_material-supervisor-account" data-name="Icon material-supervisor-account" d="M20.4,15a2.843,2.843,0,0,0,2.988-2.679A2.843,2.843,0,0,0,20.4,9.643a2.854,2.854,0,0,0-3,2.679A2.854,2.854,0,0,0,20.4,15Zm-9-1.071a3.408,3.408,0,0,0,3.588-3.214A3.408,3.408,0,0,0,11.4,7.5a3.419,3.419,0,0,0-3.6,3.214A3.419,3.419,0,0,0,11.4,13.929Zm9,3.214c-2.2,0-6.6.986-6.6,2.946V22.5H27V20.089C27,18.129,22.6,17.143,20.4,17.143Zm-9-1.071c-2.8,0-8.4,1.254-8.4,3.75V22.5h8.4V20.089c0-.911.4-2.507,2.844-3.718A16.434,16.434,0,0,0,11.4,16.071Z" transform="translate(-3 -7.5)" fill="#bcbcbc"/>
</svg>
