<svg xmlns="http://www.w3.org/2000/svg" width="23.249" height="23.75" viewBox="0 0 23.249 23.75">
  <path id="pending_complaints" d="M13.75,22A1.75,1.75,0,1,1,12,20.25,1.75,1.75,0,0,1,13.75,22ZM12,0a2,2,0,1,0,2,2A2,2,0,0,0,12,0ZM22,10.75A1.25,1.25,0,1,1,20.751,12,1.251,1.251,0,0,1,22,10.75ZM0,12a2,2,0,1,0,2-2A2,2,0,0,0,0,12ZM19,4a1,1,0,1,1-1,1A1,1,0,0,1,19,4Zm0,13.5A1.5,1.5,0,1,1,17.5,19,1.5,1.5,0,0,1,19,17.5ZM5,3A2,2,0,1,1,3,5,2,2,0,0,1,5,3ZM5,17a2,2,0,1,1-2,2A2,2,0,0,1,5,17Z" fill="#bcbcbc"/>
</svg>
