<svg xmlns="http://www.w3.org/2000/svg" width="35" height="35" viewBox="0 0 35 35">
  <g id="Group_41" data-name="Group 41" transform="translate(-549 -666)">
    <circle id="Ellipse_21" data-name="Ellipse 21" cx="17.5" cy="17.5" r="17.5" transform="translate(549 666)" fill="#5f74cc"/>
    <path id="upload" d="M16,16H13v5H11V16H8l4-4Zm3.479-5.908a7.49,7.49,0,0,0-14.958,0A5.5,5.5,0,0,0,5.5,21H9V19H5.5A3.5,3.5,0,0,1,2,15.5c0-2.8,2.479-3.833,4.433-3.72C6.266,7.562,8.641,5,12,5c3.453,0,5.891,2.8,5.567,6.78C19.312,11.734,22,12.531,22,15.5A3.5,3.5,0,0,1,18.5,19H15v2h3.5a5.5,5.5,0,0,0,.979-10.908Z" transform="translate(554 671)" fill="#fff"/>
  </g>
</svg>
