<svg xmlns="http://www.w3.org/2000/svg" width="23.441" height="17.581" viewBox="0 0 23.441 17.581">
  <path id="upload" d="M15.627,15.7H12.7v4.884H10.744V15.7H7.814l3.907-3.907Zm3.4-5.77a7.315,7.315,0,0,0-14.61,0,5.37,5.37,0,0,0,.956,10.654H8.79V18.627H5.372a3.422,3.422,0,0,1-3.418-3.418c0-2.732,2.421-3.744,4.33-3.633C6.12,7.456,8.44,4.953,11.721,4.953c3.373,0,5.754,2.732,5.437,6.622,1.7-.045,4.33.734,4.33,3.633a3.422,3.422,0,0,1-3.418,3.418H14.651v1.953h3.418a5.37,5.37,0,0,0,.956-10.654Z" transform="translate(0 -3)" fill="#fff"/>
</svg>
