<svg xmlns="http://www.w3.org/2000/svg" xmlns:xlink="http://www.w3.org/1999/xlink" width="1239.624" height="920.248" viewBox="0 0 1239.624 920.248">
  <defs>
    <linearGradient id="linear-gradient" x1="0.44" y1="-5.345" x2="0.554" y2="-7.92" gradientUnits="objectBoundingBox">
      <stop offset="0" stop-color="#f9d4d4"/>
      <stop offset="0.01"/>
      <stop offset="0.08" stop-opacity="0.69"/>
      <stop offset="0.21" stop-opacity="0.322"/>
      <stop offset="1" stop-opacity="0"/>
    </linearGradient>
    <linearGradient id="linear-gradient-2" x1="-15.476" y1="-17.86" x2="-15.59" y2="-10.947" gradientUnits="objectBoundingBox">
      <stop offset="0.01"/>
      <stop offset="0.08" stop-opacity="0.69"/>
      <stop offset="0.21" stop-opacity="0.322"/>
      <stop offset="1" stop-opacity="0"/>
    </linearGradient>
  </defs>
  <g id="Team_meeting_Monochromatic" data-name="Team meeting_Monochromatic" transform="translate(0.001 0.003)">
    <path id="Path_144" data-name="Path 144" d="M765.761,85.023c51.9,26.921,94.977,67.648,135.3,110.6,54.626,58.226,124.246,98.983,187.824,146.127,72.156,53.467,141.307,122.086,157.553,210.488,6.918,37.565,3.6,76.538-4.758,113.853A382.792,382.792,0,0,1,1190.87,789.8c-49.46,76.632-128.879,131.728-216,159.056S793.747,977.032,704.28,959.251c-46.737-9.235-92.91-23.478-140.555-24.7-36.094-.939-72,5.635-107.655,10.393C346.256,959.6,229.273,956.027,132.1,902.81,71.438,869.252,18.44,811.966,11.4,742.846c-8.076-79.2,42.98-147.442,94.695-201.41A759,759,0,0,0,215.655,396.154c13.523-23.071,27.422-41.353,35.718-67.554,7.951-25.043,12.866-50.994,22.226-75.631a215.592,215.592,0,0,1,48.271-74.817c34.247-34.434,78.949-56.347,122.712-77.54,25.669-12.522,51.4-24.855,78.448-33.746A322.9,322.9,0,0,1,715.644,64.55a291.876,291.876,0,0,1,50.118,20.473Z" transform="translate(-10.55 -50.99)" fill="#5f74cc" opacity="0.18"/>
    <path id="Path_145" data-name="Path 145" d="M458.426,317.547a32.5,32.5,0,0,1,13.116,6.7c9.892,9.391,5.071,27.36-5.885,35.53s-25.419,9.391-39.036,10.612a1252.755,1252.755,0,0,0-134.764,18.97C248.5,397.9,204.519,408.735,160,407.107c-15.652-.563-54.156-1.315-65.457-14.024-14.525-16.341,16.5-35.28,29.426-44.233,53.217-36.97,115.637-28.581,177.15-37.878C353.245,303.084,407.683,301.174,458.426,317.547Z" transform="translate(160.331 490.323)" fill="#f9d4d4"/>
    <path id="Path_146" data-name="Path 146" d="M324.408,284c-7.231,2.254-14.588,5.885-18.5,12.365a62.893,62.893,0,0,0-4.508,11.989,52.09,52.09,0,0,1-31.3,31.461c-4.132,1.471-8.765,2.629-11.332,6.261a11.739,11.739,0,0,0,.313,12.96,25.043,25.043,0,0,0,10.643,8.389c15.245,7.137,32.995,7.137,49.523,3.882s32.274-9.391,48.333-14.619a343.4,343.4,0,0,1,63.735-13.617c17.123-1.972,34.435-2.692,50.963-7.951s32.118-15.934,38.441-31.961c-20.473-21.005-53.217-23.541-82.361-21.287C401.072,284.686,360.94,272.665,324.408,284Z" transform="translate(514.416 434.843)" fill="#f9d4d4"/>
    <path id="Path_147" data-name="Path 147" d="M92.613,274.458c-7.231,2.285-14.588,5.885-18.5,12.365a62.983,62.983,0,0,0-4.539,11.99,51.839,51.839,0,0,1-31.3,31.46c-4.1,1.471-8.734,2.629-11.332,6.261a11.864,11.864,0,0,0,.313,12.96,24.48,24.48,0,0,0,10.675,8.39c15.245,7.137,32.994,7.137,49.523,3.882s32.274-9.391,48.333-14.619a343.407,343.407,0,0,1,63.735-13.617c17.092-1.972,34.434-2.692,50.963-7.92s32.118-15.965,38.441-31.993c-20.473-21-53.217-23.541-82.361-21.287C169.245,275.052,129.113,262.906,92.613,274.458Z" transform="translate(20.584 414.268)" fill="url(#linear-gradient)"/>
    <path id="Path_148" data-name="Path 148" d="M189.084,266.564c-19.1,3.443-38.692,7.2-55.158,17.468-5.666,3.506-11.176,8.421-11.989,14.963-.908,7.294,4.6,14.118,11.269,17.186a51.462,51.462,0,0,0,21.631,3.13l85.961.532,63.641.376c7.7,0,16.56-1.127,24.135,0,13.868,2.316,25.888,9.078,40.7,9.767,19.064.908,38.066-2.63,56.692-6.261,11.645-2.254,23.572-4.633,33.746-10.8,4.1-2.473,8.2-6.261,7.889-11.082a12.521,12.521,0,0,0-4.038-7.482c-14.494-14.963-38.254-13.743-58.57-18.344-21.6-4.915-41.1-17.374-62.984-21.005a163.446,163.446,0,0,0-30.3-1.127c-18.062.438-36.313-1.972-54.125.814C234.663,258.55,211.9,262.745,189.084,266.564Z" transform="translate(226.541 380.089)" fill="url(#linear-gradient-2)"/>
    <path id="Path_149" data-name="Path 149" d="M203.872,248.325c-16.028-3.631-12.9,19.127-17.123,27.547a45.14,45.14,0,0,1-9.892,11.363,20.285,20.285,0,0,0-7.2,12.9,4.57,4.57,0,0,0,.563,2.723,5.259,5.259,0,0,0,3.13,1.941,36.939,36.939,0,0,0,27.422-2.723,21.475,21.475,0,0,0,9.391-8.734,29.989,29.989,0,0,0,2.41-12.929C213.045,270.926,217.239,251.267,203.872,248.325Z" transform="translate(328.36 368.59)" fill="#fdb9a9"/>
    <path id="Path_150" data-name="Path 150" d="M197.14,263s-45.61,1.941-26.3,16.278,48.208-3.475,51.088-6.887.532-8.859.532-8.859Z" transform="translate(320.787 400.683)" fill="#5f74cc"/>
    <path id="Path_151" data-name="Path 151" d="M218.764,279.061c-4.07,4.946-25.513,11.614-34.967,10.925s-18-5.1-17.092-11.238,17.687-20.379,20.849-20.348,5.635,7.325,11.989,8.828a16.748,16.748,0,0,0,15.4-5.51,4.226,4.226,0,0,1,5.2-1.346,20.191,20.191,0,0,1-1.377,18.688Z" transform="translate(321.984 390.883)" fill="#fff"/>
    <path id="Path_152" data-name="Path 152" d="M221.432,251.208c-16.028-3.725-12.9,19-17.123,27.422a44.768,44.768,0,0,1-9.892,11.395,20.567,20.567,0,0,0-7.2,12.9,4.571,4.571,0,0,0,.563,2.723,5.259,5.259,0,0,0,3.13,1.941,37.1,37.1,0,0,0,27.422-2.723,21.912,21.912,0,0,0,9.391-8.734,29.989,29.989,0,0,0,2.41-12.929C230.6,273.622,234.8,254.057,221.432,251.208Z" transform="translate(365.77 374.69)" fill="#fdb9a9"/>
    <path id="Path_153" data-name="Path 153" d="M214.74,265.81s-45.61,1.91-26.3,16.278,48.177-3.506,50.963-6.762.532-8.89.532-8.89Z" transform="translate(358.282 406.669)" fill="#5f74cc"/>
    <path id="Path_154" data-name="Path 154" d="M236.324,281.829c-4.07,4.977-25.482,11.614-34.967,10.956s-18-5.1-17.092-11.238,17.687-20.41,20.849-20.348,5.666,7.325,11.989,8.8a16.81,16.81,0,0,0,15.433-5.51,4.2,4.2,0,0,1,5.165-1.346,20.191,20.191,0,0,1-1.377,18.689Z" transform="translate(359.393 396.848)" fill="#fff"/>
    <path id="Path_155" data-name="Path 155" d="M184.93,184.85l21.443,225.389,30.866-3.819c12.209-55,9.2-219.629,9.2-219.629Z" transform="translate(360.951 234.192)" fill="#473f47"/>
    <path id="Path_156" data-name="Path 156" d="M233.483,189.7,212.039,415.085l-31.085-3.725c-17.656-142.684-3.13-231.65-3.13-231.65Z" transform="translate(333.842 223.241)" fill="#473f47"/>
    <path id="Path_157" data-name="Path 157" d="M176.986,214.507c-.376-4.132-1.471-8.233-1.91-12.522a94.818,94.818,0,0,1,.47-25.607,97.042,97.042,0,0,1,8.076-26.014c3.569-7.169,9.986-10.205,17.248-13.774a60.92,60.92,0,0,1,19.409-6.605,49.367,49.367,0,0,1,14.4.814c14.556,2.755,33.746,10.268,43.826,21.913,7.482,8.609,8.358,20.974,8.577,32.4q.47,23.6-.97,47.206c0,2.285-.25,4.57-.438,6.856-1.346,17.249-2.755,35.154-7.669,51.839-1.534,5.228-3.13,10.487-8.014,13.3-11.395,6.605-28.831,3.13-41.133,1.252-16.309-2.317-33.088-4.727-47.551-12.522a13.68,13.68,0,0,1-6.887-6.636c-1.252-3.537.282-7.388,1.377-10.988,4.883-16.122,1.1-33.057,1.1-49.492,0-2.974.376-6.01.376-8.984C177.236,216.01,176.986,215.259,176.986,214.507Z" transform="translate(337.56 116.883)" fill="#fff"/>
    <path id="Path_158" data-name="Path 158" d="M215.346,143.035a51.487,51.487,0,0,1,5.76-8.671,2.786,2.786,0,0,1,1.064-.845,2.411,2.411,0,0,1,1.158,0l13.962,2.223a3.413,3.413,0,0,1,1.816.626,3.129,3.129,0,0,1,.939,1.44,13.492,13.492,0,0,1-1.315,9.955,137.421,137.421,0,0,1-14.369,22.132,73.726,73.726,0,0,0-7.982,13.555c-1.033,2.41-1.377,5.134-2.379,7.544s-3.13,1.158-4.915.751L187.547,187.2l-10.769-2.254c-1.565-.313-2.786-.313-1.972-2.16a4.664,4.664,0,0,1,2.755-2.285,28.649,28.649,0,0,1,5.165-.814,26.329,26.329,0,0,0,9.829-4.758,55.2,55.2,0,0,0,6.543-4.946C206.862,162.881,210.4,152.363,215.346,143.035Z" transform="translate(338.831 124.683)" fill="#020202" opacity="0.1"/>
    <path id="Path_159" data-name="Path 159" d="M201.866,135.47a13.992,13.992,0,0,1,5.666-4.508c5.1-1.753,10.174,2.536,15.433,3.757,3.944.876,8.859.376,11.207,3.694a10.267,10.267,0,0,1,0,9.078,306.089,306.089,0,0,1-16.278,41.321c-2.567,5.353-5.916,10.143-8.64,15.276-3.13,5.666-3.788,11.645-8.2,16.716s-12.522,8.64-19.064,6.042a18.187,18.187,0,0,1-7.983-6.824c-8.17-11.8-2.473-24.386,2.035-36.219C179.3,175.477,200.238,137.286,201.866,135.47Z" transform="translate(328.864 118.505)" fill="#fff"/>
    <path id="Path_160" data-name="Path 160" d="M262.172,290.275c-5.478,1-11.989,4.946-17.655,3.882a56.348,56.348,0,0,0-20.035-5.353c-9.391-1.1-19.189-5.353-28.174-8.233a23.478,23.478,0,0,1-10.236-5.228c-5.478-5.7-3.85-14.838-2.723-22.664a106.81,106.81,0,0,0-.72-34.434,75.124,75.124,0,0,0-4.163-15.652c-1.722-3.944-4.414-6.511-3.757-11.207.563-4.132,3.412-8.984,8.045-9.391a13.9,13.9,0,0,1,6.918,2.129,64.549,64.549,0,0,0,18.782,6.605,42.511,42.511,0,0,0,41.1-19.409c4.289-6.762,8.546-37.972,20.535-33.652A28.925,28.925,0,0,1,286.4,155.793a76.07,76.07,0,0,1,2.88,25.043c-.25,21.913-4.6,44.3-7.388,66.052-1.1,8.233-2.379,38.817-13.273,41.509C266.4,288.835,264.3,289.837,262.172,290.275Z" transform="translate(338.96 132.804)" fill="#020202" opacity="0.1"/>
    <path id="Path_161" data-name="Path 161" d="M191.789,148.645A14.243,14.243,0,0,0,178.3,147.8a12.96,12.96,0,0,0-7.137,11.332,17.623,17.623,0,0,0,3.13,8.953,14.118,14.118,0,0,0,3.976,4.414,13.367,13.367,0,0,0,8.546,1.784,17.373,17.373,0,0,0,7.669-2.1c3.506-1.972,8.045-7.607,6.887-12.021a25.857,25.857,0,0,0-9.579-11.52Z" transform="translate(331.616 152.474)" fill="#fdb9a9"/>
    <path id="Path_162" data-name="Path 162" d="M271.621,142.13c13.21,21.913,17.812,47.676,22.163,72.845a23.73,23.73,0,0,1,.407,9.391,16.528,16.528,0,0,1-11.927,11.363,48.648,48.648,0,0,1-17.155.908c-12.3-.783-26.89-1.847-37.314-8.984-3.6-2.442-6.762-5.478-10.424-7.826a91.888,91.888,0,0,0-11.113-5.541,127.882,127.882,0,0,1-20.786-12.146,16,16,0,0,1-5.447-5.572c-2.129-4.257-.47-9.391,1.19-13.774a5.228,5.228,0,0,1,1.941-2.849,5.384,5.384,0,0,1,4.07,0,398.683,398.683,0,0,0,53.718,12.021c4.977.783,2.786-4.7,2.129-7.544a114.4,114.4,0,0,1-2.63-12.115,36.219,36.219,0,0,1,12.522-31.523,15.182,15.182,0,0,1,8.39-3.944,14.024,14.024,0,0,1,10.268,5.29Z" transform="translate(348.357 131.911)" fill="#fff"/>
    <path id="Path_163" data-name="Path 163" d="M188.528,152.8a52.6,52.6,0,0,1-1-6.605c-1.064-9.391-1.972-19.158,2.629-27.235a21.913,21.913,0,0,1,38.222,0,29.646,29.646,0,0,1,3.349,16.5,90.06,90.06,0,0,1-3.13,16.779c-1.5,5.823-5.322,9.391-7.513,14.744a21.318,21.318,0,0,0-1.033,7.137,62.615,62.615,0,0,1,0,10.862,26.546,26.546,0,0,1-11.9,4.226,19.471,19.471,0,0,1-5.854-1,4.2,4.2,0,0,1-2.63-1.722,4.633,4.633,0,0,1-.188-2.442c0-.783.188-1.534.188-2.316a46.053,46.053,0,0,0-.188-11.739,17.686,17.686,0,0,0-6.042-7.576,17.75,17.75,0,0,1-4.915-9.61Z" transform="translate(364.647 69.969)" fill="#fdb9a9"/>
    <path id="Path_164" data-name="Path 164" d="M188.639,125.51a85.333,85.333,0,0,0,12.522-2.536c1.409-.407,3.13-.751,4.195.25a4.163,4.163,0,0,1,.939,1.941,11.583,11.583,0,0,1,.689,4.383,24.448,24.448,0,0,1-1.033,3.663,4.477,4.477,0,0,0,.344,3.631c1,1.377,3.13,1.816,3.6,3.475s-.751,2.317-1.127,3.475a24.413,24.413,0,0,0-.845,4.257,18.786,18.786,0,0,1-.751,4.915,5.791,5.791,0,0,1-3.85,3.381,5.948,5.948,0,0,1-5.04-1.064,11.8,11.8,0,0,1-3.13-7.106l-1.69-8.421a50.47,50.47,0,0,0-2.254-8.609A39.347,39.347,0,0,0,187.7,125.6Z" transform="translate(366.852 101.512)" fill="#020202" opacity="0.1"/>
    <path id="Path_165" data-name="Path 165" d="M131.588,179.267s1.941,7.857-16.685,13.742S89.39,179.267,89.39,179.267,124.7,165.524,131.588,179.267Z" transform="translate(157.412 209.285)" fill="#2f3554"/>
    <path id="Path_166" data-name="Path 166" d="M73.451,260.62l2.16-8.3,5.635-21.381a5.291,5.291,0,0,1,1.315-2.724c.845-.72,3.475,7.388,4.6,7.294a70.81,70.81,0,0,1,18.344,1.346c1.628.313-4.977,92.222-5.541,101.237-1.346,20.661-.25,61.512,2.786,61.262-6.042.5-18.407,1.19-21-1.534-4.7-4.7,3.35-34.967-5.416-70.5a123.713,123.713,0,0,1-3.569-26.671C72.418,287.6,70.227,273.33,73.451,260.62Z" transform="translate(119.759 326.492)" fill="#efac88"/>
    <path id="Path_167" data-name="Path 167" d="M88.875,369.241a22.412,22.412,0,0,0,1.69-3.882c1.44-4.6.344-9.391.657-14.024a48.079,48.079,0,0,0,0-7.356c-.5-6.261-1.315-12.522-2.1-18.782-1.346-10.549-3.819-21.537-3.819-32.212,0-8.233,6.636-34.09,6.636-34.09L85.306,225.18H118.99s4.32,28.174,3.13,31.3a66.241,66.241,0,0,0-4.289,19.972c0,12.115-1.628,24.386-2.567,36.469q-1.6,19.815-3.13,39.631c-.376,4.758-.783,9.391-1.158,14.243a46.486,46.486,0,0,0,3.788,20.379c1.064,2.911,2.254,6.511.219,8.89s-6.48,1.565-9.391,0A82.889,82.889,0,0,0,92.506,388.9a17.06,17.06,0,0,1-5.134-2.1c-3.13-2.379-3.13-7.137-1.69-10.8a66.635,66.635,0,0,1,3.193-6.761Z" transform="translate(147.534 320.111)" fill="#efac88"/>
    <path id="Path_168" data-name="Path 168" d="M93.6,148.259s-3.819-10.08,4.852,0,22.6,69.683,22.6,69.683-19.5,17.906-25.043,14.369S93.6,148.259,93.6,148.259Z" transform="translate(164.504 146.693)" fill="#2f3554"/>
    <path id="Path_169" data-name="Path 169" d="M152.1,117.737c10.925,4.508,13.586,20.692,12.8,30.928-.97,12.8-11.708,25.607-8.014,38.473a55.034,55.034,0,0,1,3.318,20.6c-.689,6.981-5.009,14.118-11.8,15.652a18.782,18.782,0,0,0-4.727,1.252,12.522,12.522,0,0,0-4.32,5.541,53.937,53.937,0,0,1-30.991,27.172c-13.492,4.1-29.457.939-39-9.391S58.315,220.07,67.394,209.3c2.6-3.13,6.1-5.979,6.261-9.986a26.954,26.954,0,0,0-.845-5.478,16.748,16.748,0,0,1,9.016-17.342c5.071-2.442,11.52-2.317,15.433-6.261,4.383-4.539,3.318-11.77,3.13-18.062C98.416,119.271,123.24,105.873,152.1,117.737Z" transform="translate(97.643 82.145)" fill="#403633"/>
    <path id="Path_170" data-name="Path 170" d="M68.115,242.69c-2.63,25.669,1.941,51.933,6.543,77.54,1.064,6.01,2.379,12.522,6.856,16.654a26.452,26.452,0,0,0,12.146,5.447,134.326,134.326,0,0,0,86.994-9.078l-6.918-63.86c-1.816-17-3.788-34.434-9.892-50.462-1.127-2.974-18.782-32.525-14.588-35.061-8.327,5.134-18,4.383-27.548,6.605A124.841,124.841,0,0,0,89.4,203a32.525,32.525,0,0,0-19.189,26.045,126.054,126.054,0,0,0-2.1,13.648Z" transform="translate(110.445 232.104)" fill="#5f74cc"/>
    <path id="Path_171" data-name="Path 171" d="M68.115,242.69c-2.63,25.669,1.941,51.933,6.543,77.54,1.064,6.01,2.379,12.522,6.856,16.654a26.452,26.452,0,0,0,12.146,5.447,134.326,134.326,0,0,0,86.994-9.078l-6.918-63.86c-1.816-17-3.788-34.434-9.892-50.462-1.127-2.974-18.782-32.525-14.588-35.061-8.327,5.134-18,4.383-27.548,6.605A124.841,124.841,0,0,0,89.4,203a32.525,32.525,0,0,0-19.189,26.045,126.054,126.054,0,0,0-2.1,13.648Z" transform="translate(110.445 232.104)" fill="#6c63ff"/>
    <path id="Path_172" data-name="Path 172" d="M114.522,143.988s-8.483,10.769-8.515,17.374a56.35,56.35,0,0,1-1.784,12.96s-1.346,7.889-5.729,4.821S78.71,155.414,78.71,155.414L95.52,133Z" transform="translate(134.66 123.73)" fill="#efac88"/>
    <path id="Path_173" data-name="Path 173" d="M160.724,324.1s-3.443-38.347-9.829-53.718a37.032,37.032,0,0,1-1.252-17.249c1.284-13.586,5.416-26.608,7.638-40.038a48.8,48.8,0,0,0-1.315-17.937q-3.506-17.468-8.2-34.685a9.172,9.172,0,0,0-1.847-4.038,9.58,9.58,0,0,0-3.725-2.1l-16.748-6.261c1.753,5.384,3.412,11.395,1,16.529a6.668,6.668,0,0,1-3.13,3.475c-3.13,1.284-6.261-.783-8.765-3.13a35.874,35.874,0,0,1-8.577-13.116A38.661,38.661,0,0,1,104,143.854c-.25-1.941.313-4.758-1.158-6.1-2.379,4.195-7.294,6.261-11.019,9.172s-8.515,6.261-13.022,9.391a21.475,21.475,0,0,0-8.8,8.953,16.967,16.967,0,0,0,0,9.829c.783,3.569,2,7.043,2.661,10.643a126.9,126.9,0,0,1,1.127,13.805,150.263,150.263,0,0,0,3.663,20.379,102.586,102.586,0,0,1,1.158,12.365s6.261,23.29,5.009,28.987-12.96,27.7-13.617,37.346,3.756,29.9,3.756,29.9,10.831.72,22.852,1.19c14.149.532,39.819-5.447,41.728-7.357,2.5-2.5,3.882-20.379,3.663-32.306,5.7,18.532,10.174,34.059,10.174,34.059Z" transform="translate(114.565 133.849)" fill="#2f3554"/>
    <path id="Path_174" data-name="Path 174" d="M84.546,204.983c2.348.689,3.13,2.786,4.883,5.416a130.194,130.194,0,0,1,6.48,11.3,1.44,1.44,0,0,1,0,2.035,1.408,1.408,0,0,1-.845.376,12.178,12.178,0,0,1-6.261.532,24.6,24.6,0,0,0,2.191,14.713c.532,1.1,1.1,2.567.219,3.443a2.6,2.6,0,0,1-1.409.532,21.912,21.912,0,0,1-12.772-3.13,20.5,20.5,0,0,1-6.01-4.038,25.7,25.7,0,0,1-5.1-9.673,34.778,34.778,0,0,1,.657-6.731c0-1.033,1.064-14.525,1.377-14.525l14.525-.563a7.2,7.2,0,0,1,2.066.313Z" transform="translate(107.412 276.416)" fill="#fdc099"/>
    <path id="Path_175" data-name="Path 175" d="M74.3,152.07l1.158,5.854L55.27,161.43V154.7Z" transform="translate(117.749 323.976)" fill="#fff"/>
    <path id="Path_176" data-name="Path 176" d="M90.967,244.727s16.059-38.629,13.868-52.247-11.426-45.391-18.25-45.109S77.6,156.762,77.6,165.215s-13.711,84.677-14.588,91.721,7.732,72,7.732,72l22.852-5.04Z" transform="translate(101.084 154.343)" fill="#2f3554"/>
    <path id="Path_177" data-name="Path 177" d="M114.023,118.652a3.131,3.131,0,0,1,.939.845,25.043,25.043,0,0,1,3.13,9.141c4.414,15.652,10.424,30.553,1.816,46.08a9.954,9.954,0,0,1-2.6,3.318,9.14,9.14,0,0,1-3.756,1.5A26.64,26.64,0,0,1,94.99,176.6a97.411,97.411,0,0,1-9.391-5.134,10.111,10.111,0,0,1-3.13-3.569c-.689-1.471-1.816-2.911-1.346-4.633.344-1.19,1.033-2.223,1.283-3.443a9.172,9.172,0,0,0-1-5.541,3.131,3.131,0,0,1-.313-2.442c.563-1.346,2.442-1.252,3.882-1.6a8.8,8.8,0,0,0,5.134-5.165,39.786,39.786,0,0,0,3.13-8.8,32.461,32.461,0,0,1,2.254-7.638,20.379,20.379,0,0,1,8.7-7.7C106.666,119.5,111.3,116.961,114.023,118.652Z" transform="translate(139.479 91.968)" fill="#fdc099"/>
    <path id="Path_178" data-name="Path 178" d="M93.76,126.371l1.409-1.221s.407.876.908.783a6.422,6.422,0,0,0,1.283-.5s-.783,1.127-1.315,1.221a8.8,8.8,0,0,1-2.223,0Z" transform="translate(166.722 107.006)" fill="#8a3c1f"/>
    <path id="Path_179" data-name="Path 179" d="M94.15,126.139l.595-1.064s.47.438.783.25a4.04,4.04,0,0,0,.657-.595s-.188.877-.5,1.064a7.953,7.953,0,0,1-1.471.438Z" transform="translate(167.553 106.112)" fill="#8a3c1f"/>
    <path id="Path_180" data-name="Path 180" d="M179.6,106.57h-58.57L70.82,170.055l55.252-2.223Z" transform="translate(150.876 227.043)" fill="#5f74cc"/>
    <path id="Path_181" data-name="Path 181" d="M119.426,190.213a13.187,13.187,0,0,1,.344-1.816,28.173,28.173,0,0,0-.313-11.864,15.871,15.871,0,0,0-6.73-9.548,3.853,3.853,0,0,0-.814-.376,1.753,1.753,0,0,0-1.753,1.659,5.76,5.76,0,0,0,.595,2.6,35.279,35.279,0,0,1,2.16,8.014l-2.943-3.35a7.982,7.982,0,0,0-3.13-2.536,2.661,2.661,0,0,0-3.412,1.44,3.6,3.6,0,0,0,.313,2.285L106.5,184.7a13.68,13.68,0,0,0-5.854-5.979,4.038,4.038,0,0,0,0,4.758,26.107,26.107,0,0,1,2.536,4.57,19.846,19.846,0,0,1-1.784-2.473c-.657-.783-1.91-1.284-2.661-.595s-.5,1.659-.282,2.5a50.086,50.086,0,0,1,2.191,18.532l3.506-.783a30.337,30.337,0,0,0,7.795-3.913,15.652,15.652,0,0,0,7.482-11.113Z" transform="translate(176.242 195.333)" fill="#efac88"/>
    <path id="Path_182" data-name="Path 182" d="M228.821,180.936c1.064-.908,2.723-1.6,3.788-.689a3.444,3.444,0,0,1,.845,2.723v5.6c9.548-2.911,16.748-10.581,23.76-17.655,1.471-1.5,3.631-3.13,5.447-2.066a4.007,4.007,0,0,1,1.471,4.32,21.508,21.508,0,0,0-1.1,4.664c0,2.567,1.847,4.789,2.1,7.325.282,3.13-1.847,5.948-2.129,9.078v3.13a11.989,11.989,0,0,1-2.723,5.134,37.846,37.846,0,0,1-12.24,11.645A37.377,37.377,0,0,1,237.492,217l-11.363,1.941a6.854,6.854,0,0,1-3.381,0c-3.412-1.158-4.477-6.73-4.351-9.8a21.914,21.914,0,0,1,3.13-8.045C223.875,194.584,223.155,185.694,228.821,180.936Z" transform="translate(432.228 199.382)" fill="#a67c52"/>
    <path id="Path_183" data-name="Path 183" d="M139.71,176.2c-.751-1.19-2.129-2.317-3.412-1.784a3.506,3.506,0,0,0-1.628,2.348l-1.722,5.322c-8.264-5.6-12.866-15.057-17.436-23.916-.97-1.878-2.536-4.038-4.6-3.569a3.882,3.882,0,0,0-2.5,3.694,24.171,24.171,0,0,1-.344,4.758c-.751,2.442-3.13,4.038-4.195,6.261-1.19,2.88,0,6.261-.657,9.391-.219,1-.657,1.972-.814,3.13a11.551,11.551,0,0,0,1.1,5.7,37.565,37.565,0,0,0,8.2,14.776,38.251,38.251,0,0,0,9.2,5.854l10.3,5.228a7.356,7.356,0,0,0,3.13,1c3.6,0,6.261-5.071,7.075-8.045a23.321,23.321,0,0,0-.47-8.577C140.368,190.729,143.655,182.559,139.71,176.2Z" transform="translate(185.07 169.617)" fill="#a67c52"/>
    <path id="Path_184" data-name="Path 184" d="M145.818,352.083a2.476,2.476,0,0,0,.25.72c1.409,3.631,5.885,4.852,9.767,5.29a79.089,79.089,0,0,0,10.894.532,15.653,15.653,0,0,0,5.1-.72,18.239,18.239,0,0,0,4.289-2.6l10.456-7.763a41.855,41.855,0,0,0,7.983-7.075A14.118,14.118,0,0,0,198,330.639a8.546,8.546,0,0,0-6.261-7.763,25.669,25.669,0,0,0-6.574.188c-4.476.219-10.737-1.628-12.522-6.261a9.392,9.392,0,0,0-3.13-5.04,8.107,8.107,0,0,0-4.852-.563,35.527,35.527,0,0,0-10.675,2.1,12.146,12.146,0,0,0-7.388,7.513,16.183,16.183,0,0,0-.469,4.915,91.916,91.916,0,0,1,0,10.174,103.3,103.3,0,0,0-.72,12.835A17.19,17.19,0,0,0,145.818,352.083Z" transform="translate(276.756 503.056)" fill="#262836"/>
    <path id="Path_185" data-name="Path 185" d="M203.094,355.492a177.8,177.8,0,0,1-21.694,8.264,13.679,13.679,0,0,1-9.391.532,9.391,9.391,0,0,1-4.946-6.261,28.329,28.329,0,0,1-.814-8.108c0-4.539,1.878-8.045,2.6-12.365.657-3.757,1.19-7.544,1.722-11.3.751-5.384,1.44-10.769,2.129-16.184l18.782,4.038c1.972.407,3.85,8.014,5.009,9.61a10.112,10.112,0,0,0,7.576,3.976c3.13.157,6.48-1.315,9.7-.783a9.8,9.8,0,0,1,7.45,9.2,15.652,15.652,0,0,1-5.071,11.332,38.6,38.6,0,0,1-10.737,6.824Z" transform="translate(321.094 500.961)" fill="#262836"/>
    <path id="Path_186" data-name="Path 186" d="M257.706,543.672a121.041,121.041,0,0,1-15.339,7.357l-.532.219c-8.7,3.381-18.438-10.268-18.438-10.268s-12.3-76.006-11.739-107.5c.376-21.631-4.727-52.466-12.522-108.406-1.941,57.13-11.614,82.236-9.141,102.709,3.757,31.148-.72,108.5-.72,108.5s-8.233,15.057-17.28,13.023h-.532a113.334,113.334,0,0,1-15.965-4.915S144.98,437.958,144.98,409.784s1.158-53.217,1.158-53.217l-5.478-89,23.447-34.027,1.91-.814,1.816-1.784,25.982-19.064s0,4.445-.469,12.052l20.16,10.831,1.972,1.471,1.972.5,33.84,5.916S260.179,379.075,263.027,407,257.706,543.672,257.706,543.672Z" transform="translate(266.638 291.776)" fill="#5f74cc"/>
    <path id="Path_187" data-name="Path 187" d="M257.706,543.672a121.041,121.041,0,0,1-15.339,7.357l-.532.219c-8.7,3.381-18.438-10.268-18.438-10.268s-12.3-76.006-11.739-107.5c.376-21.631-4.727-52.466-12.522-108.406-1.941,57.13-11.614,82.236-9.141,102.709,3.757,31.148-.72,108.5-.72,108.5s-8.233,15.057-17.28,13.023h-.532a113.334,113.334,0,0,1-15.965-4.915S144.98,437.958,144.98,409.784s1.158-53.217,1.158-53.217l-5.478-89,23.447-34.027,1.91-.814,1.816-1.784,25.982-19.064s0,4.445-.469,12.052l20.16,10.831,1.972,1.471,1.972.5,33.84,5.916S260.179,379.075,263.027,407,257.706,543.672,257.706,543.672Z" transform="translate(266.638 291.776)" fill="#473f47"/>
    <path id="Path_188" data-name="Path 188" d="M208.092,164.615c2.129,2.129,5.322,4.32,4.445,7.137-.469,1.5-2.066,2.379-3.13,3.443a16.341,16.341,0,0,0-4.727,11.739,36.875,36.875,0,0,1-1.784,12.522,9.391,9.391,0,0,1-10.142,6.1c-2.473-.689-4.946-2.817-7.325-1.816-1.816.783-2.379,3.13-3.318,4.7a12.96,12.96,0,0,1-12.522,5.635,38.88,38.88,0,0,1-13.617-4.664,9.8,9.8,0,0,1-4.476-3.475,7.2,7.2,0,0,1-.5-4.852c.877-4.977,4.32-9.078,7.106-13.367a56.692,56.692,0,0,0,9.016-26.452c.5-6.574,0-13.805,4.226-18.782,5.729-6.918,19.565-6.856,26.671-1.784C206.183,145.926,201.55,157.822,208.092,164.615Z" transform="translate(288.203 132.404)" fill="#a67c52"/>
    <path id="Path_189" data-name="Path 189" d="M219.011,165.573a10.174,10.174,0,0,1-3.663,3.976c-3.13,1.847-5.823,4.007-8.859,6.042a13.461,13.461,0,0,0-5.635,8.264c-1.284,6.261,2.1,12.8,0,18.782-.72,1.19-2.723.47-3.537-.72s-1.221-2.692-2.442-3.412c-2.066-1.19-4.6.814-5.478,3.13a10.643,10.643,0,0,0,6.042,13.429c-.282,1.91-2.786,2.692-4.727,2.41a21.033,21.033,0,0,0-5.916-.751c-4.476.845-6.261,7.231-10.643,7.889a10.205,10.205,0,0,1-7.732-4.476l-5.447-6.261a27.04,27.04,0,0,0-2.849-3.13c-1.221-.97-3.13-1.033-4.257-2.191s0-3.819-1.1-5.259a5.478,5.478,0,0,0-1.878-1.127,7.638,7.638,0,0,1-3.944-8.8,2.349,2.349,0,0,0,0-1.315c-.188-.563-.876-.845-1.44-1.127a8.17,8.17,0,0,1-3.13-10.236,16.936,16.936,0,0,1,3.788-5.572,5.729,5.729,0,0,1,5.447-2.41l.845-7.826a12.27,12.27,0,0,1,1.127-4.6c1.784-3.13,5.885-3.944,9.391-4.351l-1.5-6.511a2.367,2.367,0,0,1,1.878-3.631,34.252,34.252,0,0,1,6.449-1.064,27.607,27.607,0,0,1-1.847-5.635,2.284,2.284,0,0,1,0-1.127,1.972,1.972,0,0,1,1.972-1.033,6.259,6.259,0,0,0,2.41,0s-1.19-5.447-1.252-5.948a6.574,6.574,0,0,1,.908-5.009,5.729,5.729,0,0,1,5.29-1.972,17.562,17.562,0,0,1,5.541,2c-.188-2.1,2.5-3.13,4.664-3.318a23.854,23.854,0,0,1,20.786,9.955,8.11,8.11,0,0,0,1.315,1.6,10.393,10.393,0,0,0,3.13,1.377,12.522,12.522,0,0,1,6.981,8.108,36.532,36.532,0,0,1,1.1,10.894,32.65,32.65,0,0,1-.783,8.358,12.715,12.715,0,0,1-1,2.6Z" transform="translate(268.802 101.675)" fill="#2f3554"/>
    <path id="Path_190" data-name="Path 190" d="M173.847,160.2a124.615,124.615,0,0,1,14.463,7.231,11.05,11.05,0,0,1,3.663,3.13,5.134,5.134,0,0,1,.5,5.009c-1.315,2.254-4.257,1.409-6.543.626-10.549-4.195-21.913-4.57-32.744-4.539A4.132,4.132,0,0,1,149.242,170a5.165,5.165,0,0,1,.438-4.445C155.409,154.191,164.612,156.007,173.847,160.2Z" transform="translate(284.258 174.788)" fill="#fff"/>
    <path id="Path_191" data-name="Path 191" d="M465.944,241.464a44.2,44.2,0,0,1-9.391,14.431c-3.85,4.351-7.857,8.546-12.021,12.522A345.492,345.492,0,0,1,413.51,295.15c-7.732,5.979-16,11.864-25.638,13.743a19.91,19.91,0,0,1-11.551-.72,27.61,27.61,0,0,1-8.076-6.261c-2.786-2.755-34.716-39.506-35.248-39.506a8.452,8.452,0,0,0-3.913,4.476,87.368,87.368,0,0,0-8.421,30.4,89.75,89.75,0,0,0,0,14.212c1.252,16.059,6.887,32.619,1.315,47.77a21.507,21.507,0,0,1-5.353,8.515,25.7,25.7,0,0,1-7.982,4.7,72.97,72.97,0,0,1-16,4.57,67.328,67.328,0,0,1-9.391,1.033c-11.676.438-23.322-1.847-35-1.252-9.955.5-19.784,3.13-29.739,2.723a12.522,12.522,0,0,1-9.955-3.756,12.993,12.993,0,0,1-2.035-5.76,368.282,368.282,0,0,1-5.979-64.486c0-9.986-1.628-46.487-4.977-53.217-.407-.814-.845-1.221-1.283-1.1-11.144,3.13-35.061,9.391-46.393,11.395a13.493,13.493,0,0,1-5.009.25,12.146,12.146,0,0,1-4.7-2.379c-14.024-10.3-21.913-25.638-26.89-41.791-.97-3.13-1.847-6.261-2.661-9.391a7.106,7.106,0,0,1,3.13-9.579,3.475,3.475,0,0,1,.595-.282L133.37,185.93,149.022,205.9c3.13,3.882,6.7,8.076,11.676,8.64,6.824.689,11.958-5.51,16.153-10.8a138.709,138.709,0,0,1,50.9-39.787,40.976,40.976,0,0,1,9.141-3.13l.783-.188a9.776,9.776,0,0,1,1.377-.282,41.011,41.011,0,0,1,12.209.72,695.21,695.21,0,0,1,78.98,18.125,20,20,0,0,1,14.744,10.456c7.294,10.988,14.4,22.1,21.725,33.088,6.261,9.391,12.522,21.287,21.913,28.174a255.908,255.908,0,0,0,57.036-32.149c2.473-1.847,5.6-3.85,8.452-2.63a8.015,8.015,0,0,1,2.41,1.816C463.252,224.685,469.325,231.259,465.944,241.464Z" transform="translate(196.764 181.647)" fill="#fff"/>
    <path id="Path_192" data-name="Path 192" d="M320.269,195.8a21.068,21.068,0,0,1-9.736,4.664,22.945,22.945,0,0,1-9.61-1.69l-46.58-15.652a17.624,17.624,0,0,0-3.819,23.7c3.944,5.478,10.737,8.076,17.092,10.362l31.93,11.489a72.471,72.471,0,0,0,19.628,5.04c9.391.626,18.563-2.379,27.485-5.353,9.548-3.13,20-7.106,24.574-16.09s1.252-20.817,2.6-31.3c.908-6.824,3.913-13.367,3.788-20.254-.156-5.885-4.852-14.744-11.864-13.523-6.042,1.064-10.08,11.582-13.273,16A148.759,148.759,0,0,1,320.269,195.8Z" transform="translate(494.357 153.712)" fill="#fff"/>
    <path id="Path_193" data-name="Path 193" d="M267.772,160.751a10.893,10.893,0,0,0-2.191-3.35,3.506,3.506,0,0,0-3.725-.783,3.819,3.819,0,0,0-1.784,3.663,2.1,2.1,0,0,1-.313,1.409,1.5,1.5,0,0,1-1.44.188c-5.29-1.033-10.643-1.816-16.028-2.348a4.853,4.853,0,0,0-1.346,0,3.631,3.631,0,0,0-2.285,4.445,16.812,16.812,0,0,0,2.6,4.915c2.723,4.476,3.756,10.393,8.139,13.3a14.462,14.462,0,0,0,8.828,1.847c3.13-.157,6.1-.72,9.172-.595a9.673,9.673,0,0,0,6.073-.657,5.322,5.322,0,0,0,2.1-4.6,16.779,16.779,0,0,0-2.911-7.7C270.965,167.293,269.338,164.038,267.772,160.751Z" transform="translate(475.105 173.551)" fill="#fdb9a9"/>
    <path id="Path_194" data-name="Path 194" d="M315.31,270.1c-17.843-4.038-14.337,21.287-19.033,30.678A51.376,51.376,0,0,1,285.258,313.3c-4.038,3.944-7.826,8.765-8.045,14.368a5.2,5.2,0,0,0,.626,3.13,6.26,6.26,0,0,0,3.537,2.129,41.134,41.134,0,0,0,30.553-3.13,24.073,24.073,0,0,0,10.487-9.736,33.4,33.4,0,0,0,2.692-14.4C325.515,295.273,330.18,273.423,315.31,270.1Z" transform="translate(557.479 414.896)" fill="#fdb9a9"/>
    <path id="Path_195" data-name="Path 195" d="M307.852,286.45s-50.775,2.16-29.269,18.125,53.593-3.913,56.723-7.544.595-9.861.595-9.861Z" transform="translate(549.16 450.641)" fill="#5f74cc"/>
    <path id="Path_196" data-name="Path 196" d="M331.876,304.348c-4.539,5.51-28.393,12.929-38.942,12.177s-20.035-5.7-19-12.522,19.69-22.7,23.2-22.664,6.261,8.17,13.336,9.861a18.783,18.783,0,0,0,17.186-6.261,4.7,4.7,0,0,1,5.76-1.5C335.852,287.037,336.415,298.839,331.876,304.348Z" transform="translate(550.398 439.754)" fill="#fff"/>
    <path id="Path_197" data-name="Path 197" d="M334.844,273.308c-17.843-4.132-14.337,21.162-19.033,30.553a50.242,50.242,0,0,1-11.019,12.678c-4.038,3.944-7.795,8.765-8.014,14.369a5.134,5.134,0,0,0,.595,3.13,6.041,6.041,0,0,0,3.569,2.129,41.2,41.2,0,0,0,30.522-3.13A24.074,24.074,0,0,0,341.95,323.3a33.4,33.4,0,0,0,2.692-14.4C345.049,298.351,349.714,276.438,334.844,273.308Z" transform="translate(599.145 421.679)" fill="#fdb9a9"/>
    <path id="Path_198" data-name="Path 198" d="M327.4,289.57s-50.775,2.129-29.269,18.094,53.624-3.851,56.723-7.513.595-9.892.595-9.892Z" transform="translate(590.809 457.288)" fill="#5f74cc"/>
    <path id="Path_199" data-name="Path 199" d="M351.426,307.428c-4.539,5.572-28.393,12.96-38.942,12.209s-20.035-5.666-19-12.522,19.69-22.727,23.2-22.7,6.261,8.17,13.336,9.83a18.783,18.783,0,0,0,17.186-6.261,4.7,4.7,0,0,1,5.76-1.5C355.4,290.211,355.966,301.888,351.426,307.428Z" transform="translate(592.048 446.316)" fill="#fff"/>
    <path id="Path_200" data-name="Path 200" d="M294.22,199.44l23.854,251.027,34.435-4.257c13.586-61.231,10.268-244.516,10.268-244.516Z" transform="translate(593.783 265.274)" fill="#473f47"/>
    <path id="Path_201" data-name="Path 201" d="M348.136,204.726,324.282,455.754,289.848,451.5c-19.659-158.837-3.475-257.726-3.475-257.726Z" transform="translate(563.721 253.195)" fill="#473f47"/>
    <path id="Path_202" data-name="Path 202" d="M285.5,232.4c-.407-4.6-1.628-9.172-2.129-13.868a104.62,104.62,0,0,1,.532-28.487,108.186,108.186,0,0,1,8.984-28.988c3.975-7.951,11.144-11.332,19.189-15.308A67.835,67.835,0,0,1,333.7,138.4a55.063,55.063,0,0,1,16.028.877c16.184,3.13,37.565,11.457,48.615,24.229,8.327,9.61,9.391,23.353,9.579,36.062q.532,26.327-1.1,52.591c0,2.536-.313,5.071-.5,7.607-1.5,19.221-3.13,39.161-8.546,57.725-1.722,5.823-3.537,11.676-8.922,14.807-12.522,7.388-32.087,3.318-45.767,1.409-18.188-2.6-36.845-5.29-52.966-14.087a15.464,15.464,0,0,1-7.669-7.388c-1.409-3.944.313-8.233,1.534-12.24,5.447-17.937,1.221-36.782,1.221-55.1,0-3.318.438-6.7.438-10.017C285.621,234.062,285.5,233.217,285.5,232.4Z" transform="translate(567.603 134.736)" fill="#fff"/>
    <path id="Path_203" data-name="Path 203" d="M338.414,259.523a9.392,9.392,0,0,1,1.346-5.478c2.066-2.536,6.01-2,9.172-1.221l20.442,5.071c7.732,1.91,19.6,9.391,21.6,17.186,7.857-5.509,9.892-14.775,11.363-24.261s1.534-27.986,3.13-37.565A62.013,62.013,0,0,1,371.251,224.9c-11.614.313-26.2,0-30.428-12.522-4.852-14.65-6.542-30.021-9.767-45.047a2.285,2.285,0,0,0-2.786-2.285l-44.139.469a4.413,4.413,0,0,0-2,.376c-1.284.783-1.284,2.63-1.064,4.1a44.3,44.3,0,0,0,14.181,25.826c3.6,3.13,5.948,5.2,6.637,9.861.845,5.509.626,11.363,1.19,16.967a128.823,128.823,0,0,0,7.669,34.434C317.064,272.828,337.224,285.13,338.414,259.523Z" transform="translate(565.523 191.886)" fill="#020202" opacity="0.1"/>
    <path id="Path_204" data-name="Path 204" d="M335.188,217.806H269.48L261.31,115.63h65.738Z" transform="translate(556.697 246.344)" fill="#5f74cc"/>
    <path id="Path_205" data-name="Path 205" d="M294.36,156.943a129.868,129.868,0,0,1,.908-14.431c.438-4.163,1.1-8.358,1.91-12.522a8.421,8.421,0,0,1,3.13-6.261,39.536,39.536,0,0,1,21.475-5.885,17.28,17.28,0,0,1,19.753,14.369,15.641,15.641,0,0,1,.219,2.692c1.127,10.549-1.6,21.068-3.131,31.554A131.3,131.3,0,0,0,337.34,191a28.832,28.832,0,0,1-13.273,4.7,20.032,20.032,0,0,1-6.511-1.1,4.508,4.508,0,0,1-2.911-1.91,5.039,5.039,0,0,1-.219-2.723,23.655,23.655,0,0,0,.219-2.567h0a79.068,79.068,0,0,0-.282-14.4,1.408,1.408,0,0,0-.407-1.1,1.816,1.816,0,0,0-1,0h-1.346a45.664,45.664,0,0,1-7.169,0,12.083,12.083,0,0,1-7.482-3.725,15.652,15.652,0,0,1-2.6-11.238Z" transform="translate(593.706 90.99)" fill="#fdb9a9"/>
    <path id="Path_206" data-name="Path 206" d="M305.245,140.476a6.793,6.793,0,0,1-5.2,0,10.425,10.425,0,0,1-4.163-4.07,13.4,13.4,0,0,1,3.631-18.5,20.724,20.724,0,0,1,15.652-3.443,12.02,12.02,0,0,1,4.7-1.753,43.011,43.011,0,0,1,19.941-1.221,32.495,32.495,0,0,1,10.456,5.228,26.234,26.234,0,0,1,7.607,7.7,37.25,37.25,0,0,1,3.537,12.522,71.994,71.994,0,0,1,1.659,14.149,16.874,16.874,0,0,1-1.158,6.073,18,18,0,0,1-3.975,5.7,36.253,36.253,0,0,1-8.358,6.261c-2.129,1.19-4.6,2.41-5.322,4.758a16.78,16.78,0,0,0-.313,3.318,7.482,7.482,0,0,1-1.878,4.414c-.751.814-2.035,2.786-3.131,3.13s-2.035-1.033-2.348-2.16a21.506,21.506,0,0,1,.939-14.337,15.651,15.651,0,0,0,2.348-7.325c-.25-2.536-3.725-4.57-5.384-3.13s-1.972,5.2-4.038,4.476c2.348-7.325-.689-16.529-7.732-19.408a38.283,38.283,0,0,0-11.614-1.628,31.747,31.747,0,0,0-5.7-.626Z" transform="translate(592.556 76.529)" fill="#2f3554"/>
    <path id="Path_207" data-name="Path 207" d="M299.77,138.191a83.589,83.589,0,0,0,16.247-4.821c.47,16.936-13.3,20.442-13.3,20.442h0a79.081,79.081,0,0,0-.282-14.4,1.533,1.533,0,0,0-.407-1.1,1.816,1.816,0,0,0-1,0H299.77Z" transform="translate(605.607 124.518)" fill="#de9f93"/>
    <path id="Path_208" data-name="Path 208" d="M383.717,201.952l7.826,34.247a27.7,27.7,0,0,1,1.033,8.765c-.564,5.541-4.351,10.111-7.983,14.306a55.346,55.346,0,0,1-16.5,14.588,47.238,47.238,0,0,1-14.024,3.757,204.89,204.89,0,0,1-38.661,2.16,5.212,5.212,0,0,1-5.228-2.974,134.009,134.009,0,0,1-11.614-21.6,121.175,121.175,0,0,1,33.714-15.808,13.993,13.993,0,0,0,6.543-3.13A11.458,11.458,0,0,0,341.175,231c5.1-21.913-6.668-46.33,2.755-66.772,5.353-11.645,16.779-24.135,25.043-8.577C376.768,169.834,380.148,186.363,383.717,201.952Z" transform="translate(603.05 156.485)" fill="#fff"/>
    <path id="Path_209" data-name="Path 209" d="M315.614,184.873a31.655,31.655,0,0,0-4.477-2.817,5.228,5.228,0,0,0-5.071.219c-.689.5-1.221,1.315-2.066,1.6a3.85,3.85,0,0,1-1.69,0l-10.456-1.064a5.51,5.51,0,0,0-4.79,1.064c-1.346,1.534-.532,3.944.376,5.791a160.713,160.713,0,0,0,8.953,15.84,12.084,12.084,0,0,0,2.223,2.817,10.236,10.236,0,0,0,4.069,1.847,30.585,30.585,0,0,0,16.278-.689,45.925,45.925,0,0,0,14.4-7.795,7.167,7.167,0,0,0,1.6-1.628,5.978,5.978,0,0,0,.751-2.5c.5-4.038-.783-10.549-6.042-10.268a21.131,21.131,0,0,1-14.055-2.41Z" transform="translate(577.022 227.062)" fill="#fdb9a9"/>
    <path id="Path_210" data-name="Path 210" d="M87.311,274.223a2,2,0,0,1,.908-.783c.877-.282,1.69.5,2.285,1.19,5.416,6.261,13.523,9.391,21.287,12.209.47.156,1.064.313,1.44,0s.376-.657.532-.97a2.1,2.1,0,0,1,2.567-.657,8.888,8.888,0,0,1,2.285,1.753c3.13,2.88,7.607,4.038,11.05,6.605a4.726,4.726,0,0,1,1.972,2.442,3.412,3.412,0,0,1-.939,3.131,5.948,5.948,0,0,1-3.13,1.628,19.971,19.971,0,0,1-6.543.25q-16.247-1.221-32.368-3.444a6.418,6.418,0,0,1-2.41-.658,6.261,6.261,0,0,1-2.285-5.635,57.507,57.507,0,0,1,.97-8.327,15.965,15.965,0,0,1,2.379-8.734Z" transform="translate(145.749 422.799)" fill="#262836"/>
    <path id="Path_211" data-name="Path 211" d="M77.649,283.1a10.861,10.861,0,0,0,4.038,1.377,18.44,18.44,0,0,0,7.513.282,6.606,6.606,0,0,0,5.2-4.883c0-.751.564-1.816,1.221-1.471a1.094,1.094,0,0,1,.344.407,24.2,24.2,0,0,1,2.692,10.831,11.927,11.927,0,0,1-.5,6.01,7.826,7.826,0,0,1-5.541,4.1,19.033,19.033,0,0,1-7.043,0c-2-.313-3.976-.689-5.916-1.189a5.041,5.041,0,0,1-2.379-1,5.322,5.322,0,0,1-1.315-2,23.2,23.2,0,0,1-1.722-11.833,17.9,17.9,0,0,1,.438-2.536c0-.376.25-2.035.783-1.847s.407.407.407.783a3.632,3.632,0,0,0,.219,1.158,4.2,4.2,0,0,0,1.565,1.816Z" transform="translate(124.796 433.36)" fill="#262836"/>
    <path id="Path_212" data-name="Path 212" d="M185.614,120.213a9.391,9.391,0,0,1,1.1-6.856,8.389,8.389,0,0,1,3.85-2.536,23.228,23.228,0,0,1,4.821-1.252,6.261,6.261,0,0,0,2.348-.689,7.326,7.326,0,0,0,1.5-1.753,11.52,11.52,0,0,1,9.736-3.725c3.6,0,7.137,1.064,10.737,1.221s7.951-.5,11.207,1.5a12.521,12.521,0,0,1,4.79,7.638,5.1,5.1,0,0,1,3.6.845c1.972,1.816,0,5.509,1.722,7.669.814,1.033,2.254,1.471,3.13,2.567a4.946,4.946,0,0,1,.47,3.412,25.665,25.665,0,0,1-.532,3.788c-.877,3.443-3.13,6.261-4.195,9.736-.532,1.816-.657,3.725-1.1,5.541a33.806,33.806,0,0,1-5.791,11.082,65.457,65.457,0,0,0,.595-25.043,1.878,1.878,0,0,0-1.1-1.847,2,2,0,0,0-1.471.219,39.537,39.537,0,0,1-26.108,1.033,15.37,15.37,0,0,0-7.763-1.252,26.08,26.08,0,0,0-3.13,1.158,4.665,4.665,0,0,1-3.318,0,3.505,3.505,0,0,0-.344,1.471c-2.035-.47-1.91-3.412-2.473-5.04a48.138,48.138,0,0,1-2.285-8.89Z" transform="translate(361.926 60.542)" fill="#2f3554"/>
    <path id="Path_213" data-name="Path 213" d="M210.148,119.107a2.6,2.6,0,0,1,.407,1.064,8.765,8.765,0,0,1-1.1,6.261,11.019,11.019,0,0,1-4.727,4.383,4.07,4.07,0,0,1-3.412.313,4.257,4.257,0,0,1-1.847-3.318,9.391,9.391,0,0,1,1.69-7.732,7.419,7.419,0,0,1,5.447-2.191,4.445,4.445,0,0,1,3.537,1.221Z" transform="translate(391.454 91.481)" fill="#fdb9a9"/>
    <path id="Path_214" data-name="Path 214" d="M214.733,137.542c.157,1.283-.845,2.41-.97,3.694s0,2.817,0,4.226a9.046,9.046,0,0,1-1.69,4.946,9.391,9.391,0,0,1-4.539,2.536,31.617,31.617,0,0,1-11.019,2,32.9,32.9,0,0,1-4.633-.595c-2.473-.407-8.89-.188-9.391-3.569a14.4,14.4,0,0,1,1.5-5.322c.282-.908.532-1.816.783-2.723s.595-2.254.845-3.381c1.19-5.384,2-11.395,6.261-15.057,1.064-.97,2.849-1.659,3.819-.595s.626,2.6,1.753,2.88a2.441,2.441,0,0,0,1.158-.188,28.175,28.175,0,0,1,13.367-2.473,5.134,5.134,0,0,1,4.195,2.6c1.221,3.13-2.786,6.261-1.816,9.391a7.235,7.235,0,0,1,.376,1.628Z" transform="translate(355.753 102.785)" fill="#fdb9a9"/>
    <path id="Path_215" data-name="Path 215" d="M191.7,167.734a17.313,17.313,0,0,0-2.755-2.254c.626,11.614,2.536,23.76,9.642,32.963a71.023,71.023,0,0,1,5.165,6.636c3.13,5.259,3.381,12.083,7.388,16.716a23.352,23.352,0,0,0,12.835,6.261,17.656,17.656,0,0,0,12.9-.5,19.346,19.346,0,0,0,6.856-9.7c2.723-6.48,7.732-15.84,3.6-22.852-2.943-4.977-12.209-8.922-17.843-8.922a144,144,0,0,1-22.6-7.795,35.688,35.688,0,0,1-10.143-5.447C194.929,171.3,193.426,169.393,191.7,167.734Z" transform="translate(369.515 192.926)" fill="#fff"/>
    <path id="Path_216" data-name="Path 216" d="M196.291,192.811a64.141,64.141,0,0,0-2.786,21.913,15.024,15.024,0,0,1-.344,3.35c-.407-.814-.845-1.221-1.284-1.1-11.144,3.13-35.061,9.391-46.393,11.395a13.493,13.493,0,0,1-5.009.25,12.147,12.147,0,0,1-4.7-2.379c-14.024-10.3-21.913-25.638-26.89-41.791a44.077,44.077,0,0,1,1.847-8.233c6.668,3.6,10.142,10.988,14.306,17.342a71.56,71.56,0,0,0,14.65,16.372,10.673,10.673,0,0,0,3.944,2.317,11.363,11.363,0,0,0,5.228-.219C165.895,208.808,183.926,204.926,196.291,192.811Z" transform="translate(198.955 215.806)" fill="#020202" opacity="0.1"/>
    <path id="Path_217" data-name="Path 217" d="M333.03,216.4a345.474,345.474,0,0,1-31.022,26.734c-7.732,5.979-16,11.864-25.638,13.742a19.909,19.909,0,0,1-11.551-.72,27.609,27.609,0,0,1-8.076-6.261c-2.786-2.755-34.716-39.506-35.248-39.506a8.452,8.452,0,0,0-3.913,4.476,87.37,87.37,0,0,0-8.421,30.4,89.755,89.755,0,0,0,0,14.212c1.252,16.059,6.887,32.619,1.315,47.77a21.506,21.506,0,0,1-5.353,8.515,26.138,26.138,0,0,1-7.982,4.633,180.224,180.224,0,0,1-19.252,6.417,21.475,21.475,0,0,1-9.767.595c-1.878-.376-6.605-3.725-7.92-3.569a25.951,25.951,0,0,0,20.942-17.562c2.223-7.231,1.127-14.995,1.158-22.57a149.793,149.793,0,0,1,3.13-26.139l6.7-36.657c2.254-12.522,6.824-30.3,19.847-35.937,2.6-1.127,5.447.72,7.7,2.473,15.089,11.833,30.459,23.948,41.29,39.819,3.13,4.414,5.979,9.391,10.925,11.395s11.426.219,16.779-1.941a200.825,200.825,0,0,0,23.259-11.176c5.635-3.13,13.085-10.236,20.1-9.391a5.228,5.228,0,0,1,1,.25Z" transform="translate(308.266 233.722)" fill="#020202" opacity="0.1"/>
  </g>
</svg>
