<svg xmlns="http://www.w3.org/2000/svg" width="320.719" height="572.567" viewBox="0 0 320.719 572.567">
  <g id="login" transform="translate(0)">
    <rect id="Rectangle_42" data-name="Rectangle 42" width="280.914" height="511.849" rx="58.728" transform="translate(4.739)" fill="#3f3d56"/>
    <path id="Path_37" data-name="Path 37" d="M696.339,169.138V579.772a45.922,45.922,0,0,1-45.868,45.868h-179.7A45.921,45.921,0,0,1,424.9,579.772V169.138a45.921,45.921,0,0,1,45.868-45.868h23.5v8.117a13.857,13.857,0,0,0,13.855,13.856c30.423,9.19,66.133,7.755,104.99,0a13.857,13.857,0,0,0,13.856-13.855V123.27h23.5a45.921,45.921,0,0,1,45.868,45.868Z" transform="translate(-415.425 -118.529)" fill="#fff"/>
    <path id="Path_38" data-name="Path 38" d="M417.35,236.055a3.451,3.451,0,0,1-3.447-3.447v-6.894a3.447,3.447,0,1,1,6.894,0v6.894A3.451,3.451,0,0,1,417.35,236.055Z" transform="translate(-413.903 -132.221)" fill="#3f3d56"/>
    <path id="Path_39" data-name="Path 39" d="M417.35,275.137a3.451,3.451,0,0,1-3.447-3.447V252.714a3.447,3.447,0,0,1,6.894,0V271.69A3.451,3.451,0,0,1,417.35,275.137Z" transform="translate(-413.903 -135.955)" fill="#3f3d56"/>
    <path id="Path_40" data-name="Path 40" d="M417.35,308.116a3.451,3.451,0,0,1-3.447-3.447V285.694a3.447,3.447,0,1,1,6.894,0v18.975A3.451,3.451,0,0,1,417.35,308.116Z" transform="translate(-413.903 -140.516)" fill="#3f3d56"/>
    <path id="Path_41" data-name="Path 41" d="M745.352,232.54a3.444,3.444,0,0,0-3.447,3.438v46.308a3.447,3.447,0,0,0,6.894,0V235.978A3.45,3.45,0,0,0,745.352,232.54Z" transform="translate(-459.267 -133.641)" fill="#3f3d56"/>
    <path id="Path_42" data-name="Path 42" d="M489.063,145.458H465.8a4.308,4.308,0,1,1,0-8.617h23.266a4.308,4.308,0,1,1,0,8.617Z" transform="translate(-420.485 -120.406)" fill="#e6e6e6"/>
    <path id="Path_43" data-name="Path 43" d="M623.031,620.2c-6.484.406-10.067-7.65-5.162-12.345l.488-1.94q-.1-.233-.194-.466c-6.557-15.635-19.834-6.858-35.28.131-12.74,5.764-25.581,13.274-14.926,42.513,2.238,6.142-.446,13.095.993,19.46a226.85,226.85,0,0,1-20.635-94.218,218.978,218.978,0,0,1,1.358-24.426q1.125-9.973,3.122-19.8a230.545,230.545,0,0,1,30.95-76.857q-2.84.038-5.689.062-5.127,8.371-9.556,17.14a86.384,86.384,0,0,0,.332-17.1c-23.034-.008-46.051-.745-66.4-2.21.772,62.369,23.794,75.374,52.026,45.5.791.405,1.561.811,2.352,1.2a235.747,235.747,0,0,0-12.689,59.717,223.574,223.574,0,0,0,.162,36.1l-.061-.426a59.083,59.083,0,0,0-20.169-34.115c-15.521-12.75-37.45-17.445-54.2-27.694-8.06-4.933-18.389,1.442-16.983,10.787q.034.224.068.448a64.937,64.937,0,0,1,7.277,3.507q2.017,1.139,3.95,2.416a9.661,9.661,0,0,1-3.895,17.581l-.2.03c-.142.02-.263.041-.405.061a96.206,96.206,0,0,0,17.7,27.71c2.076,64.057,35.779,55.8,71.839,31.521h.02A235.674,235.674,0,0,0,565.059,670.7h56.555c.2-.628.385-1.277.568-1.906a64.263,64.263,0,0,1-15.649-.932c4.2-5.149,8.392-10.338,12.588-15.487a3.525,3.525,0,0,0,.263-.3c2.128-2.635,4.277-5.25,6.405-7.885v0a94.121,94.121,0,0,0-2.758-23.977Z" transform="translate(-419.275 -163.735)" fill="#5f74cc"/>
    <path id="Path_44" data-name="Path 44" d="M570.743,413.831c-5.486-13.236-15.77-24.383-24.826-35.825-10.878-13.744-33.184-7.746-35.1,9.677q-.028.253-.054.506,2.018,1.138,3.95,2.416a9.661,9.661,0,0,1-3.9,17.581l-.2.03a96.128,96.128,0,0,0,2.534,14.372,87.227,87.227,0,0,0-2.748,16.525c20.35,1.465,43.367,2.2,66.4,2.21A92.741,92.741,0,0,0,570.743,413.831Z" transform="translate(-427.25 -152.712)" fill="#e6e6e6"/>
    <path id="Path_45" data-name="Path 45" d="M641.62,393.768a46.584,46.584,0,0,0,4.237-12.73c-1.236.162-4.662-18.669-3.73-19.825-1.723-2.615-4.807-3.915-6.689-6.466-9.36-12.69-22.255-10.474-28.987,6.77-14.381,7.258-14.52,19.3-5.7,30.872,5.614,7.365,6.385,17.331,11.311,25.216-.507.649-1.034,1.277-1.541,1.926a227.164,227.164,0,0,0-14.551,21.05q2.849-.023,5.689-.061a223.465,223.465,0,0,1,14.558-20.4,61.069,61.069,0,0,0,25.4-26.352Z" transform="translate(-438.917 -149.423)" fill="#e6e6e6"/>
    <path id="Path_46" data-name="Path 46" d="M695.677,168.922V388.259c0,25.291-271.435,25.291-271.435,0V168.922a45.921,45.921,0,0,1,45.868-45.868h23.5v8.117a13.857,13.857,0,0,0,13.855,13.856c29.131,9.149,65.093,7.643,104.99,0a13.857,13.857,0,0,0,13.856-13.855v-8.118h23.5A45.921,45.921,0,0,1,695.677,168.922Z" transform="translate(-415.333 -118.499)" opacity="0.1"/>
    <path id="Path_47" data-name="Path 47" d="M604.642,203.79h-7.755a11.214,11.214,0,0,0-11.2,11.2v8.617H571.9a11.214,11.214,0,0,0-11.2,11.2v17.234a11.215,11.215,0,0,0,11.2,11.2h17.234a11.215,11.215,0,0,0,11.2-11.2V234.811a11.215,11.215,0,0,0-11.2-11.2h-1.723v-8.617a9.489,9.489,0,0,1,9.479-9.479h7.755a9.49,9.49,0,0,1,9.479,9.479v9.479h1.723v-9.479A11.214,11.214,0,0,0,604.642,203.79Zm-6.032,31.021v17.234a9.489,9.489,0,0,1-9.479,9.479H571.9a9.489,9.489,0,0,1-9.479-9.479V234.811a9.489,9.489,0,0,1,9.479-9.479c8.16,4.747,12.655,2.292,17.234,0a9.489,9.489,0,0,1,9.479,9.479Z" transform="translate(-434.205 -129.665)" fill="#fff"/>
    <path id="Path_48" data-name="Path 48" d="M582.45,256.3a7.755,7.755,0,1,0-7.755-7.755,7.755,7.755,0,0,0,7.755,7.755Zm0-9.479c3.326,0,6.032-1.6,6.032,1.723a6.032,6.032,0,1,1-12.064,0C576.418,245.219,579.124,246.822,582.45,246.822Z" transform="translate(-436.141 -134.782)" fill="#fff"/>
    <circle id="Ellipse_6" data-name="Ellipse 6" cx="2.585" cy="2.585" r="2.585" transform="translate(143.723 111.178)" fill="#fff"/>
    <rect id="Rectangle_43" data-name="Rectangle 43" width="6.213" height="1.723" transform="translate(283.318 124.103)" fill="#fff"/>
    <path id="Path_49" data-name="Path 49" d="M424.7,425.842v4.308c0,25.291,271.435,25.291,271.435,0v-4.308C696.13,451.134,424.7,451.134,424.7,425.842Z" transform="translate(-415.396 -160.375)" opacity="0.1"/>
    <path id="Path_50" data-name="Path 50" d="M701.7,491.764a6.6,6.6,0,0,0,5.187-7.613,6.342,6.342,0,0,0-.282-1.009l17.655-14.806-4.361-11.6-21.992,22.9a6.586,6.586,0,0,0-3.727,7.125,6.3,6.3,0,0,0,7.351,5.042h0Z" transform="translate(-452.652 -164.648)" fill="#a0616a"/>
    <path id="Path_51" data-name="Path 51" d="M710.719,396l-7,5.583s-8.367,15.212-2.37,18.367,24.642,13.647,24.642,13.647-7.706,7.671-8.615,11.4,1.1,7.036-2.09,6.257-3.284,1.758-4.063,4.951-5.972,6.135-5.972,6.135l9.926,7.324s4.595,1.623,4.971-2.233-.67-3.312,2.524-2.533,5.884-4.218,7.585-8.879,19.056-26.352,19.056-26.352l-18.157-20.205A48.252,48.252,0,0,0,710.718,396Z" transform="translate(-453.358 -156.248)" fill="#5f74cc"/>
    <path id="Path_52" data-name="Path 52" d="M295.141,641.084l-7.229-.061-3.2-28.532,10.669.091Z" transform="translate(-39.376 -84.709)" fill="#a0616a"/>
    <path id="Path_53" data-name="Path 53" d="M683.848,774.268a3.236,3.236,0,0,0,3.2,3.26l14.372.12,2.516-5.1.924,5.126,5.423.049-1.369-18.282-1.887-.126-7.7-.531-2.483-.166-.044,5.173-11.545,7.831a3.23,3.23,0,0,0-1.416,2.646Z" transform="translate(-451.237 -206.399)" fill="#2f2e41"/>
    <path id="Path_54" data-name="Path 54" d="M218.125,641.084l-7.228-.061-3.2-28.532,10.669.091Z" transform="translate(-28.725 -84.709)" fill="#a0616a"/>
    <path id="Path_55" data-name="Path 55" d="M606.833,774.268a3.236,3.236,0,0,0,3.2,3.26l14.372.12,2.516-5.1.924,5.126,5.423.049L631.9,759.441l-1.887-.126-7.7-.531-2.483-.166-.044,5.173-11.545,7.831A3.23,3.23,0,0,0,606.833,774.268Z" transform="translate(-440.586 -206.399)" fill="#2f2e41"/>
    <path id="Path_56" data-name="Path 56" d="M649.07,483.055s-13.88,6.837-10.262,10.953.644,6.443-3.866,10.309-13.59,49.151-13.59,49.151L609.6,623.618s3.12,61.253,5.213,63.435,5.315-1.04,2.094,2.182-5.8.644-3.222,3.222,3.222,9.665,3.222,9.665l16.7-1.407s10.868-47.083,3.529-67.94l28.791-76.3,8.7,73.62s4.778,59.783,8,61.716,5.543,2.063,2.771,4.575-2.771-1.354-2.771,2.512v6.412l15.586,2.139s7.239-57.312,3.881-83.832L712.26,534.6l-7.924-40.115L696.153,483.7Z" transform="translate(-440.968 -168.288)" fill="#2f2e41"/>
    <path id="Path_57" data-name="Path 57" d="M577.253,456.031a6.6,6.6,0,0,0,9.121-1.295,6.337,6.337,0,0,0,.556-.888l22.836,3.076,5.638-11.038-31.738-.832a6.586,6.586,0,0,0-7.777,2.044,6.3,6.3,0,0,0,1.225,8.83h0Q577.182,455.981,577.253,456.031Z" transform="translate(-436.13 -162.961)" fill="#a0616a"/>
    <path id="Path_58" data-name="Path 58" d="M650.055,396.486l-8.843-1.414s-10.613,5.794-8.905,12.352.245,25.674.245,25.674-10.86-.528-14.226,1.309-4.458,5.555-6.033,2.67.086-4.416-2.8-2.841-12.154,2.891-12.154,2.891l-3.726,12.688s5.177,7.119,8.28,4.8,3.714-5.773,5.289-2.888,2.015,8.263,6.6,6.381,37.38-10.421,37.38-10.421l3.963-39.615Z" transform="translate(-438.758 -156.12)" fill="#5f74cc"/>
    <path id="Path_59" data-name="Path 59" d="M648.014,477.436s-6.243-9.964-5.055-11.425,2.677,1.065,0-1.487,12.337-19.579,13.323-22.087-15.028-46.3-15.028-46.3l13.64-8.215L666.421,371.7l20.617,3.3,7.254,14.7,10.246,3.615.862.862v26.713s4.56,22.8-5.473,30.651c0,0,4.787,10.427,3.5,12.36s21.881,27.332,3.7,30.233C687.206,497.317,644.721,476.31,648.014,477.436Z" transform="translate(-445.346 -152.888)" fill="#5f74cc"/>
    <path id="Path_60" data-name="Path 60" d="M530.427,780.878a1.023,1.023,0,0,0,1.025,1.025H749.712a1.025,1.025,0,1,0,0-2.051H531.453a1.023,1.023,0,0,0-1.026,1.026Z" transform="translate(-430.019 -209.336)" fill="#ccc"/>
    <circle id="Ellipse_7" data-name="Ellipse 7" cx="20.994" cy="20.994" r="20.994" transform="translate(213.427 180.887)" fill="#a0616a"/>
    <path id="Path_61" data-name="Path 61" d="M702.872,332.622c-.216-1.889-1.511-4.224-2.412-5.9a5.132,5.132,0,0,0-4.538-2.926,4.841,4.841,0,0,0-3.709,2.52,10.152,10.152,0,0,0-1.154,4.482,23.474,23.474,0,0,0,7.633,18.691,8.465,8.465,0,0,0,5.218,2.539,6.731,6.731,0,0,0,4.767-2.144c3.2-3.2,3.682-8.469,1.974-12.661s-2.47-5.823-6.375-8.113" transform="translate(-452.23 -146.261)" fill="#2f2e41"/>
    <path id="Path_62" data-name="Path 62" d="M668.408,362.872c.351,1.868-2.879,10.751-1.847,12.352,0,0,10.688,3.712,14.775,3.979,4.993.323,9.008-1.725,13.678-4.808a10.483,10.483,0,0,1,1.411-4.747,6.353,6.353,0,0,0,.66,3.244c17.489-4.345,13.207-20.039,2.645-27.392l-7.022-16.15c2.107.7-4.253-10.147-10.958-2.29-8.391-8.546-24.647,3.757-26.683,14.746,1.96-2.48,2.981-2.188,3.483-.477a9.672,9.672,0,0,1,2.668-3.729,8.083,8.083,0,0,0-.871,3.729c13.236.822,10.773,9.751-.076,23.128,4.012-2.5,1.3,8.265,3.447,10.837C663.822,373.5,668.029,364.62,668.408,362.872Z" transform="translate(-447.257 -146.317)" fill="#2f2e41"/>
    <path id="Path_63" data-name="Path 63" d="M691.649,346.092a.7.7,0,0,0,.192-1.378,8.506,8.506,0,0,1-.048-2.615c.228-3.879.611-10.371-5.692-14.753a.7.7,0,1,0-.8,1.153c5.656,3.933,5.316,9.7,5.091,13.517-.128,2.182-.221,3.758,1.1,4.058A.7.7,0,0,0,691.649,346.092Z" transform="translate(-451.396 -146.736)" fill="#5f74cc"/>
    <path id="Path_64" data-name="Path 64" d="M692.336,330.828a39.6,39.6,0,0,1,13.486-2.989c3.677-.156,8.064.664,9.559,4.027.907,2.04.424,4.432-.406,6.5s-4.706,6.258-2.474,6.212c5.607-.115,8,4.9,5.156,12.69-1.65,4.518,8.586,4.344,13.358,4.949-3.585,1.33-7.225,2.673-11.036,2.992s-7.88-.509-10.725-3.064c-3.079-2.765-4.262-7.059-4.786-11.164s-.551-8.332-1.942-12.229-4.588-7.527-8.711-7.872" transform="translate(-452.411 -146.819)" fill="#2f2e41"/>
  </g>
</svg>
