<svg xmlns="http://www.w3.org/2000/svg" width="490.002" height="491.468" viewBox="0 0 490.002 491.468">
  <g id="login" transform="translate(0 -0.001)">
    <path id="Path_1" data-name="Path 1" d="M274.7,690.048l-4.316-17.02a221,221,0,0,0-23.448-8.413l-.545,7.91-2.209-8.715c-9.882-2.825-16.6-4.068-16.6-4.068s9.078,34.53,28.126,60.929l22.192,3.9-17.24,2.486a89.407,89.407,0,0,0,7.709,8.172c27.706,25.717,58.565,37.516,68.925,26.354s-3.7-41.058-31.406-66.772c-8.589-7.973-19.378-14.37-30.179-19.407Z" transform="translate(-227.576 -276.028)" fill="#f2f2f2"/>
    <path id="Path_2" data-name="Path 2" d="M344.669,651.547l5.1-16.8a221.007,221.007,0,0,0-15.723-19.322l-4.555,6.49,2.613-8.6c-7-7.523-12.112-12.062-12.112-12.062s-10.075,34.253-7.417,66.7l16.983,14.808-16.046-6.784a89.4,89.4,0,0,0,2.378,10.982c10.424,36.336,30.742,62.388,45.381,58.188s18.055-37.06,7.631-73.4c-3.231-11.264-9.161-22.318-15.8-32.212Z" transform="translate(-256.506 -256.015)" fill="#f2f2f2"/>
    <path id="Path_22" data-name="Path 22" d="M620.266,192.891h-2.692V119.146a42.684,42.684,0,0,0-42.684-42.684H418.646a42.684,42.684,0,0,0-42.684,42.684V523.727a42.684,42.684,0,0,0,42.684,42.684H574.891a42.683,42.683,0,0,0,42.683-42.683V245.385h2.692Z" transform="translate(-278.346 -76.461)" fill="#e6e6e6"/>
    <path id="Path_23" data-name="Path 23" d="M582.738,93.335H562.345A15.144,15.144,0,0,1,548.322,114.2H458.811A15.144,15.144,0,0,1,444.79,93.335H425.741a31.876,31.876,0,0,0-31.876,31.876V529.2a31.876,31.876,0,0,0,31.876,31.876h157A31.876,31.876,0,0,0,614.614,529.2h0V125.21a31.876,31.876,0,0,0-31.875-31.875Z" transform="translate(-284.471 -82.234)" fill="#fff"/>
    <path id="Path_6" data-name="Path 6" d="M522.871,329.6a16.077,16.077,0,0,1,8.048-13.931,16.085,16.085,0,1,0,0,27.858A16.074,16.074,0,0,1,522.871,329.6Z" transform="translate(-323.107 -157.566)" fill="#ccc"/>
    <path id="Path_7" data-name="Path 7" d="M553.608,329.6a16.077,16.077,0,0,1,8.048-13.931,16.085,16.085,0,1,0,0,27.859,16.074,16.074,0,0,1-8.046-13.927Z" transform="translate(-333.624 -157.566)" fill="#ccc"/>
    <circle id="Ellipse_1" data-name="Ellipse 1" cx="16.085" cy="16.085" r="16.085" transform="translate(223.66 155.946)" fill="#5f74cc"/>
    <path id="Path_8" data-name="Path 8" d="M582.366,362.074H488.621a3.37,3.37,0,0,1-3.366-3.366V264.963a3.37,3.37,0,0,1,3.366-3.366h93.744a3.37,3.37,0,0,1,3.366,3.366v93.744A3.37,3.37,0,0,1,582.366,362.074Zm-93.744-99.13a2.022,2.022,0,0,0-2.02,2.02v93.744a2.022,2.022,0,0,0,2.02,2.02h93.744a2.022,2.022,0,0,0,2.02-2.02V264.964a2.022,2.022,0,0,0-2.02-2.02Z" transform="translate(-315.74 -139.804)" fill="#ccc"/>
    <rect id="Rectangle_1" data-name="Rectangle 1" width="143.776" height="1.347" transform="translate(143.782 294.129)" fill="#ccc"/>
    <circle id="Ellipse_2" data-name="Ellipse 2" cx="4.541" cy="4.541" r="4.541" transform="translate(143.782 276.64)" fill="#5f74cc"/>
    <rect id="Rectangle_2" data-name="Rectangle 2" width="143.776" height="1.347" transform="translate(143.782 339.531)" fill="#ccc"/>
    <circle id="Ellipse_3" data-name="Ellipse 3" cx="4.541" cy="4.541" r="4.541" transform="translate(143.782 322.043)" fill="#5f74cc"/>
    <path id="Path_27" data-name="Path 27" d="M635.519,659.81H590.082a2.964,2.964,0,0,1-2.96-2.96V640.924a2.964,2.964,0,0,1,2.96-2.96h45.437a2.964,2.964,0,0,1,2.96,2.96V656.85a2.964,2.964,0,0,1-2.961,2.96Z" transform="translate(-350.593 -268.577)" fill="#5f74cc"/>
    <circle id="Ellipse_7" data-name="Ellipse 7" cx="4.541" cy="4.541" r="4.541" transform="translate(158.593 276.64)" fill="#5f74cc"/>
    <circle id="Ellipse_8" data-name="Ellipse 8" cx="4.541" cy="4.541" r="4.541" transform="translate(173.404 276.64)" fill="#5f74cc"/>
    <circle id="Ellipse_9" data-name="Ellipse 9" cx="4.541" cy="4.541" r="4.541" transform="translate(158.593 322.043)" fill="#5f74cc"/>
    <circle id="Ellipse_10" data-name="Ellipse 10" cx="4.541" cy="4.541" r="4.541" transform="translate(173.404 322.043)" fill="#5f74cc"/>
    <path id="Path_88" data-name="Path 88" d="M723.035,822.705H250.7c-1.011,0-1.83-.359-1.83-.8s.819-.8,1.83-.8H723.035c1.01,0,1.83.359,1.83.8S724.045,822.705,723.035,822.705Z" transform="translate(-234.863 -331.236)" fill="none"/>
    <path id="Path_28" data-name="Path 28" d="M787.318,555.563a6.621,6.621,0,0,1,.928.518l29.506-12.594,1.053-7.773,11.79-.072-.7,17.827-38.945,10.3a6.985,6.985,0,0,1-.294.795,6.733,6.733,0,1,1-3.342-9Z" transform="translate(-415.842 -233.568)" fill="#ffb8b8"/>
    <path id="Path_29" data-name="Path 29" d="M630.79,718.842h-8.065l-3.837-31.109h11.9Z" transform="translate(-211.749 -235.304)" fill="#ffb8b8"/>
    <path id="Path_30" data-name="Path 30" d="M610.87,731.518h15.554v9.793H601.076A9.793,9.793,0,0,1,610.87,731.518Z" transform="translate(-205.655 -250.285)" fill="#2f2e41"/>
    <path id="Path_31" data-name="Path 31" d="M676.913,715.456l-8.026.791-6.869-30.583,11.846-1.167Z" transform="translate(-226.506 -234.197)" fill="#ffb8b8"/>
    <path id="Path_32" data-name="Path 32" d="M9.793,0H25.348V9.793H0A9.793,9.793,0,0,1,9.793,0Z" transform="translate(426.672 481.28) rotate(-5.625)" fill="#2f2e41"/>
    <circle id="Ellipse_5" data-name="Ellipse 5" cx="16.158" cy="16.158" r="16.158" transform="translate(405.128 236.837)" fill="#ffb8b8"/>
    <path id="Path_33" data-name="Path 33" d="M838.6,742.78a2.941,2.941,0,0,1-2.9-2.432c-4.175-23.173-17.82-98.945-18.146-101.044a.954.954,0,0,1-.01-.146v-5.65a.979.979,0,0,1,.184-.574l1.8-2.525a.972.972,0,0,1,.752-.411c10.277-.482,43.934-1.894,45.56.137h0c1.633,2.042,1.056,8.228.924,9.447l.006.127,15.121,96.7a2.969,2.969,0,0,1-2.444,3.378L870,741.346a2.974,2.974,0,0,1-3.306-2.035c-2.921-9.334-12.716-40.733-16.11-52.883a.328.328,0,0,0-.645.091c.17,11.582.579,41.131.721,51.337l.015,1.1a2.972,2.972,0,0,1-2.692,2.984l-9.107.827A2.763,2.763,0,0,1,838.6,742.78Z" transform="translate(-429.43 -265.534)" fill="#2f2e41"/>
    <path id="Path_99" data-name="Path 99" d="M840.742,494.472c-2.82,1.676-4.507,4.757-5.475,7.891a74.787,74.787,0,0,0-3.213,17.867l-1.023,18.157-12.667,48.135c10.979,9.289,17.312,7.178,32.09-.42s16.468,2.534,16.468,2.534l2.955-40.957,4.222-44.755a19.843,19.843,0,0,0-3.2-3.075,32.668,32.668,0,0,0-27.921-5.918Z" transform="translate(-429.711 -218.967)" fill="#5f74cc"/>
    <path id="Path_34" data-name="Path 34" d="M841.294,568.8a6.923,6.923,0,0,1,.987.463l29.175-14.6.484-7.911,12.035-.83.645,18.034-38.989,12.893a6.9,6.9,0,1,1-4.337-8.047Z" transform="translate(-434.377 -237.084)" fill="#ffb8b8"/>
    <path id="Path_101" data-name="Path 101" d="M894.74,507.958c7.178,2.534,8.443,29.981,8.443,29.981-8.445-4.645-18.579,2.956-18.579,2.956s-2.111-7.178-4.645-16.468a16.137,16.137,0,0,1,3.378-15.2S887.562,505.423,894.74,507.958Z" transform="translate(-450.563 -223.798)" fill="#5f74cc"/>
    <path id="Path_102" data-name="Path 102" d="M874.056,453.579c-2.013-1.611-4.76,1.317-4.76,1.317L867.685,440.4s-10.066,1.206-16.508-.4-7.449,5.839-7.449,5.839a51.689,51.689,0,0,1-.2-9.059c.4-3.624,5.637-7.248,14.9-9.663s14.092,8.052,14.092,8.052C878.96,438.388,876.069,455.189,874.056,453.579Z" transform="translate(-438.283 -196.312)" fill="#2f2e41"/>
  </g>
</svg>
